<svg id="visual" viewBox="0 0 900 600" width="900" height="600" xmlns="http://www.w3.org/2000/svg" xmlns:xlink="http://www.w3.org/1999/xlink" version="1.1"><rect x="0" y="0" width="900" height="600" fill="#FFFFFF"></rect><defs><linearGradient id="grad1_0" x1="33.3%" y1="0%" x2="100%" y2="100%"><stop offset="20%" stop-color="#ffffff" stop-opacity="1"></stop><stop offset="80%" stop-color="#ffffff" stop-opacity="1"></stop></linearGradient></defs><defs><linearGradient id="grad2_0" x1="0%" y1="0%" x2="66.7%" y2="100%"><stop offset="20%" stop-color="#ffffff" stop-opacity="1"></stop><stop offset="80%" stop-color="#ffffff" stop-opacity="1"></stop></linearGradient></defs><g transform="translate(900, 0)"><path d="M0 486.7C-65.2 473.7 -130.5 460.7 -176.8 426.8C-223.1 393 -250.5 338.3 -298.4 298.4C-346.3 258.5 -414.9 233.5 -449.7 186.3C-484.5 139 -485.6 69.5 -486.7 0L0 0Z" fill="#f0f0f0"></path></g><g transform="translate(0, 600)"><path d="M0 -486.7C53.7 -459.4 107.5 -432 171.4 -413.9C235.4 -395.8 309.6 -386.9 344.2 -344.2C378.7 -301.5 373.6 -224.9 390.8 -161.9C408 -98.9 447.4 -49.4 486.7 0L0 0Z" fill="#f0f0f0"></path></g></svg>